<mxfile host="Electron" modified="2023-05-21T11:27:55.005Z" agent="Mozilla/5.0 (Macintosh; Intel Mac OS X 10_15_7) AppleWebKit/537.36 (KHTML, like Gecko) draw.io/21.2.8 Chrome/112.0.5615.165 Electron/24.2.0 Safari/537.36" etag="hqm5Ou2qY62Ntqx6Aeyh" version="21.2.8" type="device">
  <diagram name="Страница 1" id="i1BFGR4zzyVL8XXpe5Dz">
    <mxGraphModel dx="778" dy="651" grid="1" gridSize="10" guides="1" tooltips="1" connect="1" arrows="1" fold="1" page="1" pageScale="1" pageWidth="827" pageHeight="1169" math="0" shadow="0">
      <root>
        <mxCell id="0" />
        <mxCell id="1" parent="0" />
        <mxCell id="WJeQVq-rOiD9zwmr4dxv-5" style="edgeStyle=orthogonalEdgeStyle;rounded=0;orthogonalLoop=1;jettySize=auto;html=1;exitX=0.5;exitY=1;exitDx=0;exitDy=0;entryX=0.5;entryY=0;entryDx=0;entryDy=0;" parent="1" source="WJeQVq-rOiD9zwmr4dxv-1" target="WJeQVq-rOiD9zwmr4dxv-3" edge="1">
          <mxGeometry relative="1" as="geometry" />
        </mxCell>
        <mxCell id="WJeQVq-rOiD9zwmr4dxv-1" value="" style="rounded=1;whiteSpace=wrap;html=1;fillColor=#7EA6E0;" parent="1" vertex="1">
          <mxGeometry x="300" y="60" width="200" height="60" as="geometry" />
        </mxCell>
        <mxCell id="WJeQVq-rOiD9zwmr4dxv-2" value="Начало" style="text;html=1;strokeColor=none;fillColor=none;align=center;verticalAlign=middle;whiteSpace=wrap;rounded=0;" parent="1" vertex="1">
          <mxGeometry x="370" y="75" width="60" height="30" as="geometry" />
        </mxCell>
        <mxCell id="WJeQVq-rOiD9zwmr4dxv-8" style="edgeStyle=orthogonalEdgeStyle;rounded=0;orthogonalLoop=1;jettySize=auto;html=1;exitX=0.5;exitY=1;exitDx=0;exitDy=0;entryX=0.5;entryY=0;entryDx=0;entryDy=0;" parent="1" source="WJeQVq-rOiD9zwmr4dxv-3" target="WJeQVq-rOiD9zwmr4dxv-6" edge="1">
          <mxGeometry relative="1" as="geometry" />
        </mxCell>
        <mxCell id="WJeQVq-rOiD9zwmr4dxv-3" value="" style="rounded=0;whiteSpace=wrap;html=1;" parent="1" vertex="1">
          <mxGeometry x="300" y="160" width="200" height="60" as="geometry" />
        </mxCell>
        <mxCell id="WJeQVq-rOiD9zwmr4dxv-4" value="int arr[]" style="text;html=1;strokeColor=none;fillColor=none;align=center;verticalAlign=middle;whiteSpace=wrap;rounded=0;" parent="1" vertex="1">
          <mxGeometry x="370" y="175" width="60" height="30" as="geometry" />
        </mxCell>
        <mxCell id="WJeQVq-rOiD9zwmr4dxv-10" style="edgeStyle=orthogonalEdgeStyle;rounded=0;orthogonalLoop=1;jettySize=auto;html=1;exitX=0.5;exitY=1;exitDx=0;exitDy=0;entryX=0.5;entryY=0;entryDx=0;entryDy=0;" parent="1" source="WJeQVq-rOiD9zwmr4dxv-6" target="WJeQVq-rOiD9zwmr4dxv-9" edge="1">
          <mxGeometry relative="1" as="geometry" />
        </mxCell>
        <mxCell id="WJeQVq-rOiD9zwmr4dxv-6" value="" style="shape=parallelogram;perimeter=parallelogramPerimeter;whiteSpace=wrap;html=1;fixedSize=1;" parent="1" vertex="1">
          <mxGeometry x="300" y="260" width="200" height="60" as="geometry" />
        </mxCell>
        <mxCell id="WJeQVq-rOiD9zwmr4dxv-7" value="Вывод исходного массива" style="text;html=1;strokeColor=none;fillColor=none;align=center;verticalAlign=middle;whiteSpace=wrap;rounded=0;" parent="1" vertex="1">
          <mxGeometry x="345" y="275" width="110" height="30" as="geometry" />
        </mxCell>
        <mxCell id="WJeQVq-rOiD9zwmr4dxv-13" style="edgeStyle=orthogonalEdgeStyle;rounded=0;orthogonalLoop=1;jettySize=auto;html=1;exitX=0.5;exitY=1;exitDx=0;exitDy=0;" parent="1" source="WJeQVq-rOiD9zwmr4dxv-9" target="WJeQVq-rOiD9zwmr4dxv-12" edge="1">
          <mxGeometry relative="1" as="geometry" />
        </mxCell>
        <mxCell id="WJeQVq-rOiD9zwmr4dxv-9" value="" style="shape=hexagon;perimeter=hexagonPerimeter2;whiteSpace=wrap;html=1;fixedSize=1;" parent="1" vertex="1">
          <mxGeometry x="300" y="360" width="200" height="60" as="geometry" />
        </mxCell>
        <mxCell id="WJeQVq-rOiD9zwmr4dxv-11" value="int i = 0; i &amp;lt; size-1; i++" style="text;html=1;strokeColor=none;fillColor=none;align=center;verticalAlign=middle;whiteSpace=wrap;rounded=0;" parent="1" vertex="1">
          <mxGeometry x="340" y="375" width="120" height="30" as="geometry" />
        </mxCell>
        <mxCell id="WJeQVq-rOiD9zwmr4dxv-20" style="edgeStyle=orthogonalEdgeStyle;rounded=0;orthogonalLoop=1;jettySize=auto;html=1;exitX=0.5;exitY=1;exitDx=0;exitDy=0;entryX=0.5;entryY=0;entryDx=0;entryDy=0;" parent="1" source="WJeQVq-rOiD9zwmr4dxv-12" target="WJeQVq-rOiD9zwmr4dxv-19" edge="1">
          <mxGeometry relative="1" as="geometry" />
        </mxCell>
        <mxCell id="WJeQVq-rOiD9zwmr4dxv-35" style="edgeStyle=orthogonalEdgeStyle;rounded=0;orthogonalLoop=1;jettySize=auto;html=1;exitX=1;exitY=0.5;exitDx=0;exitDy=0;entryX=0.5;entryY=0;entryDx=0;entryDy=0;" parent="1" source="WJeQVq-rOiD9zwmr4dxv-12" target="WJeQVq-rOiD9zwmr4dxv-33" edge="1">
          <mxGeometry relative="1" as="geometry">
            <Array as="points">
              <mxPoint x="580" y="490" />
              <mxPoint x="580" y="900" />
            </Array>
          </mxGeometry>
        </mxCell>
        <mxCell id="WJeQVq-rOiD9zwmr4dxv-12" value="" style="shape=hexagon;perimeter=hexagonPerimeter2;whiteSpace=wrap;html=1;fixedSize=1;" parent="1" vertex="1">
          <mxGeometry x="300" y="460" width="200" height="60" as="geometry" />
        </mxCell>
        <mxCell id="WJeQVq-rOiD9zwmr4dxv-14" value="for int j = i+1; j &amp;lt; size; j++" style="text;html=1;strokeColor=none;fillColor=none;align=center;verticalAlign=middle;whiteSpace=wrap;rounded=0;" parent="1" vertex="1">
          <mxGeometry x="332" y="475" width="136" height="30" as="geometry" />
        </mxCell>
        <mxCell id="WJeQVq-rOiD9zwmr4dxv-27" style="edgeStyle=orthogonalEdgeStyle;rounded=0;orthogonalLoop=1;jettySize=auto;html=1;exitX=0.5;exitY=1;exitDx=0;exitDy=0;entryX=0.5;entryY=0;entryDx=0;entryDy=0;" parent="1" source="WJeQVq-rOiD9zwmr4dxv-16" target="WJeQVq-rOiD9zwmr4dxv-25" edge="1">
          <mxGeometry relative="1" as="geometry" />
        </mxCell>
        <mxCell id="WJeQVq-rOiD9zwmr4dxv-16" value="" style="shape=parallelogram;perimeter=parallelogramPerimeter;whiteSpace=wrap;html=1;fixedSize=1;" parent="1" vertex="1">
          <mxGeometry x="300" y="660" width="200" height="60" as="geometry" />
        </mxCell>
        <mxCell id="WJeQVq-rOiD9zwmr4dxv-17" value="Вывод данной иттерации сортировки" style="text;html=1;strokeColor=none;fillColor=none;align=center;verticalAlign=middle;whiteSpace=wrap;rounded=0;" parent="1" vertex="1">
          <mxGeometry x="330" y="675" width="140" height="30" as="geometry" />
        </mxCell>
        <mxCell id="WJeQVq-rOiD9zwmr4dxv-22" style="edgeStyle=orthogonalEdgeStyle;rounded=0;orthogonalLoop=1;jettySize=auto;html=1;exitX=0.5;exitY=1;exitDx=0;exitDy=0;entryX=0.5;entryY=0;entryDx=0;entryDy=0;" parent="1" source="WJeQVq-rOiD9zwmr4dxv-19" target="WJeQVq-rOiD9zwmr4dxv-16" edge="1">
          <mxGeometry relative="1" as="geometry" />
        </mxCell>
        <mxCell id="WJeQVq-rOiD9zwmr4dxv-29" style="edgeStyle=orthogonalEdgeStyle;rounded=0;orthogonalLoop=1;jettySize=auto;html=1;exitX=1;exitY=0.5;exitDx=0;exitDy=0;entryX=0;entryY=0.5;entryDx=0;entryDy=0;" parent="1" source="WJeQVq-rOiD9zwmr4dxv-30" target="WJeQVq-rOiD9zwmr4dxv-12" edge="1">
          <mxGeometry relative="1" as="geometry">
            <Array as="points">
              <mxPoint x="540" y="590" />
              <mxPoint x="540" y="860" />
              <mxPoint x="260" y="860" />
              <mxPoint x="260" y="490" />
            </Array>
          </mxGeometry>
        </mxCell>
        <mxCell id="WJeQVq-rOiD9zwmr4dxv-19" value="" style="rhombus;whiteSpace=wrap;html=1;" parent="1" vertex="1">
          <mxGeometry x="320" y="560" width="160" height="60" as="geometry" />
        </mxCell>
        <mxCell id="WJeQVq-rOiD9zwmr4dxv-21" value="arr[j] &amp;lt; arr[i]" style="text;html=1;strokeColor=none;fillColor=none;align=center;verticalAlign=middle;whiteSpace=wrap;rounded=0;" parent="1" vertex="1">
          <mxGeometry x="365" y="575" width="70" height="30" as="geometry" />
        </mxCell>
        <mxCell id="WJeQVq-rOiD9zwmr4dxv-23" value="Yes" style="text;strokeColor=none;align=center;fillColor=#FFFFFF;html=1;verticalAlign=middle;whiteSpace=wrap;rounded=0;" parent="1" vertex="1">
          <mxGeometry x="384" y="630" width="30" height="10" as="geometry" />
        </mxCell>
        <mxCell id="WJeQVq-rOiD9zwmr4dxv-28" style="edgeStyle=orthogonalEdgeStyle;rounded=0;orthogonalLoop=1;jettySize=auto;html=1;exitX=0.5;exitY=1;exitDx=0;exitDy=0;entryX=0;entryY=0.5;entryDx=0;entryDy=0;" parent="1" source="WJeQVq-rOiD9zwmr4dxv-25" target="WJeQVq-rOiD9zwmr4dxv-12" edge="1">
          <mxGeometry relative="1" as="geometry">
            <Array as="points">
              <mxPoint x="400" y="860" />
              <mxPoint x="260" y="860" />
              <mxPoint x="260" y="490" />
            </Array>
          </mxGeometry>
        </mxCell>
        <mxCell id="WJeQVq-rOiD9zwmr4dxv-25" value="" style="rounded=0;whiteSpace=wrap;html=1;" parent="1" vertex="1">
          <mxGeometry x="300" y="760" width="200" height="60" as="geometry" />
        </mxCell>
        <mxCell id="WJeQVq-rOiD9zwmr4dxv-26" value="temp = arr[j];&lt;br&gt;arr[j] = arr[i];&lt;br&gt;arr[i] = temp;" style="text;html=1;strokeColor=none;fillColor=none;align=center;verticalAlign=middle;whiteSpace=wrap;rounded=0;" parent="1" vertex="1">
          <mxGeometry x="364" y="770" width="70" height="40" as="geometry" />
        </mxCell>
        <mxCell id="WJeQVq-rOiD9zwmr4dxv-32" value="" style="edgeStyle=orthogonalEdgeStyle;rounded=0;orthogonalLoop=1;jettySize=auto;html=1;exitX=1;exitY=0.5;exitDx=0;exitDy=0;entryX=0;entryY=0.5;entryDx=0;entryDy=0;" parent="1" source="WJeQVq-rOiD9zwmr4dxv-19" target="WJeQVq-rOiD9zwmr4dxv-12" edge="1">
          <mxGeometry relative="1" as="geometry">
            <mxPoint x="480" y="590" as="sourcePoint" />
            <mxPoint x="490" y="590" as="targetPoint" />
            <Array as="points">
              <mxPoint x="540" y="590" />
              <mxPoint x="540" y="860" />
              <mxPoint x="260" y="860" />
              <mxPoint x="260" y="490" />
            </Array>
          </mxGeometry>
        </mxCell>
        <mxCell id="WJeQVq-rOiD9zwmr4dxv-30" value="No" style="text;html=1;strokeColor=none;fillColor=#FFFFFF;align=center;verticalAlign=middle;whiteSpace=wrap;rounded=0;" parent="1" vertex="1">
          <mxGeometry x="500" y="585" width="30" height="10" as="geometry" />
        </mxCell>
        <mxCell id="WJeQVq-rOiD9zwmr4dxv-38" style="edgeStyle=orthogonalEdgeStyle;rounded=0;orthogonalLoop=1;jettySize=auto;html=1;exitX=0.5;exitY=1;exitDx=0;exitDy=0;entryX=0.5;entryY=0;entryDx=0;entryDy=0;" parent="1" source="WJeQVq-rOiD9zwmr4dxv-33" target="WJeQVq-rOiD9zwmr4dxv-36" edge="1">
          <mxGeometry relative="1" as="geometry" />
        </mxCell>
        <mxCell id="WJeQVq-rOiD9zwmr4dxv-33" value="" style="shape=parallelogram;perimeter=parallelogramPerimeter;whiteSpace=wrap;html=1;fixedSize=1;" parent="1" vertex="1">
          <mxGeometry x="300" y="940" width="200" height="60" as="geometry" />
        </mxCell>
        <mxCell id="WJeQVq-rOiD9zwmr4dxv-34" value="Вывод отсортированного массива" style="text;html=1;strokeColor=none;fillColor=none;align=center;verticalAlign=middle;whiteSpace=wrap;rounded=0;" parent="1" vertex="1">
          <mxGeometry x="324" y="955" width="150" height="30" as="geometry" />
        </mxCell>
        <mxCell id="WJeQVq-rOiD9zwmr4dxv-36" value="" style="ellipse;whiteSpace=wrap;html=1;fillColor=#7EA6E0;" parent="1" vertex="1">
          <mxGeometry x="320" y="1040" width="160" height="60" as="geometry" />
        </mxCell>
        <mxCell id="WJeQVq-rOiD9zwmr4dxv-37" value="Конец" style="text;html=1;strokeColor=none;fillColor=none;align=center;verticalAlign=middle;whiteSpace=wrap;rounded=0;" parent="1" vertex="1">
          <mxGeometry x="370" y="1055" width="60" height="30" as="geometry" />
        </mxCell>
      </root>
    </mxGraphModel>
  </diagram>
</mxfile>
